<svg viewBox="0 0 283 700" xmlns="http://www.w3.org/2000/svg">
   <g id="g27" transform="translate(-2.136186,-5.527947)">
      <path fill="#000000" opacity="1" stroke="none"
         d="m 265.66837,655.15671 c -14.04871,22.12665 -41.96665,26.73658 -65.7609,14.3426 -3.4259,-1.78449 -3.64877,-3.65003 -1.23096,-6.57129 13.44639,-16.24665 31.23877,-21.10962 51.37568,-19.61658 4.10821,0.3045 8.20214,1.37463 12.2001,2.46728 7.08637,1.93671 7.31891,2.73267 3.41608,9.37799 z"
         id="path5" />
      <path fill="#000000" opacity="1" stroke="none"
         d="m 159.77609,619.22312 c 19.57196,-9.28235 38.4061,-7.45355 57.01966,1.8208 3.47918,1.73352 3.66403,3.39789 1.2677,6.46185 -15.10825,19.31763 -42.59827,22.90271 -64.7034,8.2671 -8.1163,-5.37378 -8.1742,-6.64539 -0.28623,-12.44971 2.00205,-1.47321 4.24143,-2.62384 6.70227,-4.10004 z"
         id="path7" />
      <path fill="#000000" opacity="1" stroke="none"
         d="m 156.18082,605.11839 c -19.85123,4.70758 -36.01488,-1.62507 -50.00797,-14.94935 -3.94226,-3.7539 -3.75648,-4.85717 0.94173,-7.83203 12.5515,-7.94738 26.19696,-8.94494 40.31282,-5.89355 10.84863,2.34509 20.59894,7.02478 29.14542,14.76379 -5.23746,7.25074 -12.14615,11.19696 -20.392,13.91114 z"
         id="path9" />
      <path fill="#000000" opacity="1" stroke="none"
         d="m 108.30863,532.0648 c 10.82348,3.67315 19.74946,9.53619 27.408,17.47033 2.56926,2.66175 2.10464,4.2348 -0.75413,6.26203 -14.90188,10.56714 -35.345752,9.88897 -51.855962,-1.80139 -5.36679,-3.80005 -9.79358,-8.49067 -13.6418,-13.75861 -3.07033,-4.20312 -2.82787,-5.31903 1.92114,-7.38672 12.0347,-5.23981 24.25861,-4.78503 36.922752,-0.78564 z"
         id="path11" />
      <path fill="#000000" opacity="1" stroke="none"
         d="m 96.572788,513.48862 c -20.80277,5.19465 -41.00147,-3.88305 -52.88981,-23.5036 -6.19075,-10.21722 -5.99639,-10.86834 5.73649,-12.63964 11.68511,-1.76404 22.48593,1.47912 32.57658,7.07177 8.53416,4.73004 15.77539,11.05609 21.387652,19.16315 3.56315,5.14703 3.50552,5.67847 -2.22254,8.22839 -1.362732,0.60663 -2.790982,1.0661 -4.588372,1.67993 z"
         id="path12" />
      <path fill="#000000" opacity="1" stroke="none"
         d="m 42.093568,455.57529 c -10.53569,-7.6344 -16.73366,-17.8117 -20.64578,-29.6535 -1.22782,-3.71655 -0.13659,-5.15826 3.55096,-5.61951 8.54115,-1.06823 16.53229,0.73938 24.21014,4.30665 14.14287,6.57116 24.25176,17.122 31.0997,31.08471 2.06167,4.20368 0.58663,5.62067 -3.25367,6.56336 -12.55417,3.08172 -24.06082,0.78436 -34.96135,-6.68171 z"
         id="path15" />
      <path fill="#000000" opacity="1" stroke="none"
         d="m 25.657588,361.62144 c 20.88308,7.43463 32.6574,22.67614 39.19045,42.72424 1.12451,3.45081 0.0637,4.78235 -3.55994,5.13294 -18.25232,1.76568 -31.51777,-6.15491 -41.15426,-21.02613 -4.58534,-7.07623 -6.98452,-15.02698 -8.49488,-23.30353 -0.76872,-4.21246 0.93731,-5.63092 4.78562,-5.14605 2.96391,0.37347 5.89679,0.9931 9.23301,1.61853 z"
         id="path16" />
      <path fill="#000000" opacity="1" stroke="none"
         d="m 49.957218,354.93113 c -20.86286,-3.83859 -34.56837,-18.79495 -37.68727,-40.86844 -0.48716,-3.44778 -0.66736,-6.94553 -0.85469,-10.4274 -0.21946,-4.07931 1.66178,-5.19598 5.60513,-4.24164 14.79478,3.58063 24.72325,13.13562 32.04666,25.85508 4.09711,7.1159 6.76639,14.79592 7.78729,22.98294 0.90025,7.2193 0.86403,7.22381 -6.89712,6.69946 z"
         id="path18" />
      <path fill="#000000" opacity="1" stroke="none"
         d="m 32.396608,288.1738 c -11.39943,-13.56985 -14.01688,-28.90197 -11.34064,-45.6369 0.67372,-4.21283 2.60301,-4.3389 5.84338,-3.06424 12.20887,4.80271 19.89772,14.13471 25.2764,25.57648 4.4374,9.43945 6.3297,19.54834 6.33653,29.96182 0.003,5.31253 -1.14437,6.06168 -6.3965,4.80381 -7.63586,-1.8288 -14.19254,-5.52076 -19.71917,-11.64097 z"
         id="path20" />
      <path fill="#000000" opacity="1" stroke="none"
         d="m 67.369018,213.53623 c 2.06491,9.77832 1.99408,19.16266 0.56721,28.61267 -0.60907,4.03391 -2.17588,5.00653 -6.02293,3.48703 -14.02138,-5.53799 -21.20137,-16.5 -24.46608,-30.53076 -2.48822,-10.69357 -0.73111,-21.09485 2.68329,-31.34592 1.05676,-3.17276 2.51767,-3.82544 5.49649,-2.11963 12.29733,7.04197 18.28668,18.33738 21.74202,31.89661 z"
         id="path22" />
      <path fill="#000000" opacity="1" stroke="none"
         d="m 84.872528,141.89487 c 6.96622,16.45673 6.29564,32.66169 1.0916,49.04239 -1.39852,4.4021 -3.33553,4.47913 -6.86667,2.40589 -13.07129,-7.67459 -21.00848,-25.34442 -18.48096,-41.8584 1.18866,-7.76627 3.52236,-15.17298 7.19797,-22.17542 1.68353,-3.20727 3.43368,-3.62961 6.15051,-1.31906 4.48776,3.81668 8.30394,8.13718 10.90755,13.9046 z"
         id="path24" />
      <path fill="#000000" opacity="1" stroke="none"
         d="m 92.639068,103.61161 c 1.8615,-8.338615 5.27332,-15.500925 10.033452,-22.053705 4.0843,-5.6224 4.98448,-5.65921 9.3213,0.047 7.47629,9.83699 9.31697,21.224665 8.41681,33.115775 -0.76225,10.06949 -4.06262,19.47598 -8.65507,28.49048 -2.06019,4.04391 -3.97138,4.0675 -7.12731,1.27139 -10.290532,-9.11743 -14.109052,-20.65268 -13.098602,-34.05728 0.16189,-2.1478 0.65375,-4.27075 1.10942,-6.81369 z"
         id="path26" />
      <path fill="#000000" opacity="1" stroke="none"
         d="m 152.60452,36.251345 c 10.64545,16.2849 7.73127,32.55745 1.04154,48.83842 -2.15631,5.24779 -5.29401,9.97213 -8.7363,14.47555 -3.52711,4.614375 -4.30928,4.620755 -8.03772,-0.11423 -7.84039,-9.95706 -9.84872,-21.17533 -7.02075,-33.37442 2.67187,-11.52562 8.7043,-21.10227 17.18957,-29.21213 1.5362,-1.46822 3.08966,-3.46265 5.56366,-0.61319 z"
         id="path28" />
      <path fill="#000000" opacity="1" stroke="none"
         d="m 248.81195,580.50645 c 1.47748,-3.88398 3.52646,-3.80255 6.29712,-1.82318 10.92374,7.80383 16.61551,18.815 19.50031,31.54833 2.03106,8.96528 1.57089,17.86902 -1.05451,26.65986 -1.6427,5.50024 -2.50326,5.81622 -7.68948,2.97143 -16.23419,-8.90484 -27.77658,-30.64477 -19.63251,-52.98743 0.74088,-2.03253 1.59949,-4.02221 2.57907,-6.36901 z"
         id="path30" />
      <path fill="#000000" opacity="1" stroke="none"
         d="m 207.18997,559.95487 c 6.45862,-11.3537 8.34324,-11.64648 15.41437,-0.93689 11.57239,17.52698 12.16034,36.0874 3.85092,55.15759 -1.73004,3.9704 -3.8468,3.56348 -6.83957,1.25464 -15.08386,-11.63629 -23.29672,-33.95672 -12.42572,-55.47534 z"
         id="path31" />
      <path fill="#000000" opacity="1" stroke="none"
         d="m 193.68656,555.84147 c -1.50644,11.51788 -4.72132,21.82678 -12.82279,30.60711 -8.46579,-6.44274 -13.05945,-14.96514 -15.27069,-24.69036 -3.54486,-15.59046 1.53586,-28.8407 12.06885,-40.36798 2.53534,-2.77466 4.42822,-2.71662 6.68646,0.47656 7.13489,10.08868 9.79977,21.34717 9.33817,33.97467 z"
         id="path32" />
      <path fill="#000000" opacity="1" stroke="none"
         d="m 157.22983,487.6215 c 8.3851,21.16888 4.82642,40.04706 -9.47339,57.00549 -3.92766,4.65784 -5.13327,4.40772 -8.40167,-0.64221 -12.78352,-19.7514 -9.0318,-43.99286 9.07287,-58.62293 5.1084,-4.12799 5.20463,-4.10644 8.80219,2.25965 z"
         id="path33" />
      <path fill="#000000" opacity="1" stroke="none"
         d="m 136.65312,457.39915 c 0.55843,18.18267 -5.73829,32.93774 -19.24182,44.49847 -4.92108,4.21301 -6.12723,4.01575 -8.57823,-1.70032 -8.72696,-20.35254 -3.29103,-45.30023 18.56502,-56.65344 4.86938,-2.52942 5.74559,-2.25574 7.1924,3.15369 0.89732,3.35498 1.37048,6.82336 2.06263,10.7016 z"
         id="path35" />
      <path fill="#000000" opacity="1" stroke="none"
         d="m 87.436278,422.25571 c 5.21327,-11.87579 14.020842,-19.20221 25.720832,-23.3764 3.57341,-1.27496 5.17021,-0.24475 5.68519,3.55487 2.98549,22.02673 -7.1273,42.745 -26.217772,53.40363 -4.69696,2.62225 -5.28841,2.36828 -6.76383,-2.88044 -2.88791,-10.27374 -2.40827,-20.38897 1.57558,-30.70166 z"
         id="path36" />
      <path fill="#000000" opacity="1" stroke="none"
         d="m 95.856228,393.43424 c -5.84352,5.88922 -12.36143,10.04254 -19.87842,12.65082 -3.16749,1.099 -5.05957,0.52405 -5.52165,-3.17383 -2.92817,-23.43243 9.49497,-44.48175 32.977052,-49.64041 6.10976,-1.34225 7.4748,-0.12811 7.08622,6.20956 -0.79346,12.94135 -5.80831,24.08857 -14.663202,33.95386 z"
         id="path38" />
      <path fill="#000000" opacity="1" stroke="none"
         d="m 210.28327,60.856265 c -11.34461,11.15367 -24.21109,18.62839 -39.83451,20.88957 -3.01941,0.43701 -4.6933,-0.28821 -4.09134,-3.5654 4.99277,-27.18051 34.87467,-45.09222 57.58206,-40.79602 -1.78549,9.36769 -7.78808,16.1868 -13.65621,23.47185 z"
         id="path40" />
      <path fill="#000000" opacity="1" stroke="none"
         d="m 94.926118,339.51365 c -7.50754,7.48685 -16.01036,12.36597 -26.129,14.46503 -4.23346,0.87817 -5.6514,-0.39054 -5.672,-4.72077 -0.10714,-22.51513 16.64988,-41.20859 39.003632,-43.23489 6.72237,-0.60935 7.74363,0.29013 6.57058,6.97445 -1.77417,10.10981 -6.52932,18.78687 -13.773212,26.51618 z"
         id="path42" />
      <path fill="#000000" opacity="1" stroke="none"
         d="m 100.233,259.51676 c 4.41365,-0.81256 8.35616,-0.57464 12.31967,0.21198 2.78394,0.55252 3.5752,2.0245 2.80152,4.64233 -6.42887,21.75281 -27.143622,36.80505 -47.039112,37.06677 -3.76065,0.0495 -4.89153,-1.12988 -4.25168,-5.05121 3.12695,-19.16305 17.03575,-33.63403 36.169602,-36.86987 z"
         id="path44" />
      <path fill="#000000" opacity="1" stroke="none"
         d="m 104.7491,213.99064 c 7.56793,-1.94315 14.57668,-1.21326 21.53314,1.04199 2.89447,0.93835 3.42862,2.422 2.24282,5.23883 -7.86055,18.67255 -31.747752,32.0683 -51.876802,29.15244 -4.20201,-0.60868 -4.34099,-2.75717 -3.16254,-5.9101 5.52936,-14.79361 15.29652,-25.14386 31.263382,-29.52316 z"
         id="path45" />
      <path fill="#000000" opacity="1" stroke="none"
         d="m 139.26495,169.91312 c 12.5672,3.9144 13.22422,5.53647 4.29772,14.57929 -13.66689,13.84494 -30.0262,19.98437 -49.520052,15.12662 -5.17809,-1.29038 -5.40263,-2.16681 -2.77266,-6.84876 C 101.7914,174.03971 118.41725,166.025 139.26495,169.91312 Z"
         id="path47" />
      <path fill="#000000" opacity="1" stroke="none"
         d="m 122.28659,154.57963 c -9.6837,-3.86377 -9.84534,-4.61576 -2.94142,-12.03238 13.94936,-14.98535 33.08608,-19.32013 49.75496,-11.27027 9.31659,4.49927 9.686,6.83356 1.66565,13.03394 -14.34696,11.09149 -30.15001,15.79413 -48.47919,10.26871 z"
         id="path50" />
      <path fill="#000000" opacity="1" stroke="none"
         d="m 147.52158,109.38404 c -1.95203,-1.67352 -1.50055,-3.11642 -0.17643,-4.49283 15.18396,-15.783295 40.6056,-21.464645 59.16093,-4.982365 3.98565,3.540385 3.97042,4.276345 -0.36118,7.465765 -16.35346,12.04132 -40.87531,14.92438 -58.62332,2.00943 z"
         id="path52" />
   </g>
</svg>